<svg width="249" height="95" viewBox="0 0 249 95" fill="none" xmlns="http://www.w3.org/2000/svg">
<path d="M111.414 18.8625L117.961 32.1751L124.507 18.8625H135.509L124.342 38.7213L135.811 58.9102H124.699L117.961 45.3501L111.222 58.9102H100.082L111.579 38.7213L100.385 18.8625H111.414ZM155.973 27.2791L146.208 58.9102H135.839L150.554 18.8625H157.128L155.973 27.2791ZM164.059 58.9102L154.267 27.2791L153.002 18.8625H159.659L174.456 58.9102H164.059ZM163.674 43.9748V51.4287H143.128V43.9748H163.674ZM177.399 18.8625H193.16C196.24 18.8625 198.918 19.321 201.191 20.2378C203.465 21.1546 205.216 22.5116 206.445 24.3086C207.692 26.1056 208.315 28.3243 208.315 30.9648C208.315 33.2569 207.958 35.1731 207.243 36.7134C206.527 38.2537 205.528 39.5281 204.244 40.5367C202.979 41.5269 201.503 42.3428 199.816 42.9846L196.653 44.7725H183.423L183.368 37.3186H193.16C194.388 37.3186 195.406 37.0985 196.213 36.6584C197.02 36.2183 197.625 35.5949 198.028 34.7881C198.45 33.9629 198.661 32.9819 198.661 31.845C198.661 30.6898 198.45 29.6996 198.028 28.8744C197.607 28.0493 196.983 27.4167 196.158 26.9766C195.351 26.5365 194.352 26.3165 193.16 26.3165H187.054V58.9102H177.399V18.8625ZM199.321 58.9102L190.464 41.1968L200.696 41.1418L209.663 58.4976V58.9102H199.321ZM235.875 18.8625H245.53V45.02C245.53 48.1373 244.879 50.7778 243.577 52.9415C242.275 55.0869 240.451 56.7097 238.103 57.8099C235.756 58.9102 232.997 59.4603 229.824 59.4603C226.689 59.4603 223.929 58.9102 221.545 57.8099C219.18 56.7097 217.328 55.0869 215.989 52.9415C214.669 50.7778 214.009 48.1373 214.009 45.02V18.8625H223.691V45.02C223.691 46.6703 223.929 48.0181 224.406 49.0633C224.883 50.0901 225.579 50.842 226.496 51.3187C227.413 51.7955 228.522 52.0338 229.824 52.0338C231.145 52.0338 232.254 51.7955 233.152 51.3187C234.051 50.842 234.729 50.0901 235.188 49.0633C235.646 48.0181 235.875 46.6703 235.875 45.02V18.8625Z" fill="#1F8EFA"/>
<path d="M25.8876 8.30294C25.8917 8.28178 25.8991 8.26686 25.91 8.2583L25.8876 8.30294C25.6011 9.79323 42.1134 42.2238 57.0697 60.8323L40.5821 59.4842L19.4794 21.0648L25.8876 8.30294Z" fill="url(#paint0_linear_438_2)"/>
<path d="M18.1604 71.6167L33.7696 71.5921V59.4842L18.8199 53.418L18.1604 71.6167Z" fill="url(#paint1_linear_438_2)"/>
<path d="M92.2105 78.4477L93.4783 77.9331L92.9215 76.5484L91.6537 77.0631L92.2105 78.4477Z" fill="#0D65BB"/>
<path d="M87.1267 76.2834L88.3945 75.7687L87.9073 74.5572L86.6395 75.0718L87.1267 76.2834Z" fill="#0D65BB"/>
<path d="M85.9009 76.3783L86.3881 77.5899L85.1203 78.1045L84.6331 76.893L85.9009 76.3783Z" fill="#0D65BB"/>
<path d="M82.8931 72.5659L83.3803 73.7775L82.1125 74.2921L81.6253 73.0805L82.8931 72.5659Z" fill="#0D65BB"/>
<path d="M81.5692 74.5126L82.126 75.8973L81.0394 76.3384L80.4826 74.9538L81.5692 74.5126Z" fill="#0D65BB"/>
<path d="M79.131 76.3078L79.6182 77.5193L78.5315 77.9605L78.0443 76.7489L79.131 76.3078Z" fill="#0D65BB"/>
<path d="M78.3107 70.6006L78.7979 71.8122L77.5302 72.3269L77.043 71.1153L78.3107 70.6006Z" fill="#0D65BB"/>
<path d="M77.6694 72.673L78.1566 73.8846L76.7077 74.4728L76.2205 73.2612L77.6694 72.673Z" fill="#0D65BB"/>
<path d="M75.663 74.4942L76.1502 75.7058L75.0635 76.1469L74.5763 74.9353L75.663 74.4942Z" fill="#0D65BB"/>
<path d="M73.0436 76.3628L73.4612 77.4013L72.3746 77.8424L71.957 76.8039L73.0436 76.3628Z" fill="#0D65BB"/>
<path d="M73.9791 68.735L74.4663 69.9465L73.3796 70.3877L72.8924 69.1761L73.9791 68.735Z" fill="#0D65BB"/>
<path d="M73.5188 70.7338L74.006 71.9454L72.9194 72.3865L72.4322 71.1749L73.5188 70.7338Z" fill="#0D65BB"/>
<path d="M72.4457 72.7802L72.8633 73.8187L71.7766 74.2598L71.359 73.2213L72.4457 72.7802Z" fill="#0D65BB"/>
<path d="M70.2581 74.6748L70.6757 75.7133L69.5891 76.1545L69.1715 75.116L70.2581 74.6748Z" fill="#0D65BB"/>
<path d="M67.5692 76.3704L67.9868 77.4089L66.9002 77.85L66.4826 76.8115L67.5692 76.3704Z" fill="#0D65BB"/>
<path d="M69.9677 67.1419L70.3853 68.1804L69.4798 68.548L69.0622 67.5095L69.9677 67.1419Z" fill="#0D65BB"/>
<path d="M69.6886 69.0673L70.1758 70.2789L69.2703 70.6465L68.7831 69.4349L69.6886 69.0673Z" fill="#0D65BB"/>
<path d="M68.9776 70.9666L69.3952 72.0051L68.3086 72.4462L67.891 71.4077L68.9776 70.9666Z" fill="#0D65BB"/>
<path d="M67.4727 72.9869L67.8903 74.0254L66.8036 74.4665L66.386 73.428L67.4727 72.9869Z" fill="#0D65BB"/>
<path d="M65.3966 74.6349L65.8838 75.8465L64.7972 76.2876L64.31 75.0761L65.3966 74.6349Z" fill="#0D65BB"/>
<path d="M62.7773 76.5036L63.2645 77.7152L62.359 78.0828L61.8718 76.8712L62.7773 76.5036Z" fill="#0D65BB"/>
<path d="M66.4301 65.1553L66.8477 66.1938L65.9422 66.5614L65.5246 65.5229L66.4301 65.1553Z" fill="#0D65BB"/>
<path d="M66.4017 67.1802L66.8889 68.3918L65.8022 68.8329L65.315 67.6213L66.4017 67.1802Z" fill="#0D65BB"/>
<path d="M65.6907 69.0795L66.2475 70.4641L65.1609 70.9053L64.6041 69.5206L65.6907 69.0795Z" fill="#0D65BB"/>
<path d="M64.4364 71.1993L64.9237 72.4109L63.837 72.852L63.3498 71.6404L64.4364 71.1993Z" fill="#0D65BB"/>
<path d="M63.043 72.973L63.5998 74.3577L62.332 74.8723L61.7752 73.4877L63.043 72.973Z" fill="#0D65BB"/>
<path d="M61.0366 74.7942L61.5238 76.0058L60.256 76.5204L59.7688 75.3088L61.0366 74.7942Z" fill="#0D65BB"/>
<path d="M63.3939 63.3677L63.8811 64.5793L62.7945 65.0204L62.3073 63.8088L63.3939 63.3677Z" fill="#0D65BB"/>
<path d="M63.3655 65.3926L63.8527 66.6042L62.766 67.0453L62.2788 65.8338L63.3655 65.3926Z" fill="#0D65BB"/>
<path d="M62.9748 67.5646L63.462 68.7762L62.1943 69.2908L61.7071 68.0792L62.9748 67.5646Z" fill="#0D65BB"/>
<path d="M61.9017 69.6109L62.3889 70.8225L61.3022 71.2636L60.815 70.052L61.9017 69.6109Z" fill="#0D65BB"/>
<path d="M60.7589 71.4842L61.1765 72.5227L60.0898 72.9638L59.6722 71.9253L60.7589 71.4842Z" fill="#0D65BB"/>
<path d="M59.0032 73.4049L59.4904 74.6165L58.4037 75.0576L57.9165 73.846L59.0032 73.4049Z" fill="#0D65BB"/>
<path d="M57.2475 75.3256L57.6651 76.3641L56.7596 76.7317L56.342 75.6932L57.2475 75.3256Z" fill="#0D65BB"/>
<path d="M58.6679 76.7624L59.1551 77.974L58.0685 78.4151L57.5813 77.2035L58.6679 76.7624Z" fill="#0D65BB"/>
<path d="M55.854 77.0993L56.3412 78.3109L55.7979 78.5315L55.3107 77.3199L55.854 77.0993Z" fill="#0D65BB"/>
<path d="M60.009 63.3325L61.0956 62.8913L60.6084 61.6798L59.5218 62.1209L60.009 63.3325Z" fill="#0D65BB"/>
<path d="M60.6496 63.8777L61.0672 64.9162L59.9805 65.3574L59.5629 64.3189L60.6496 63.8777Z" fill="#0D65BB"/>
<path d="M60.1893 65.8766L60.6069 66.9151L59.7014 67.2827L59.2838 66.2442L60.1893 65.8766Z" fill="#0D65BB"/>
<path d="M59.4784 67.7759L59.9656 68.9875L58.8789 69.4286L58.3917 68.217L59.4784 67.7759Z" fill="#0D65BB"/>
<path d="M58.4052 69.8222L58.8924 71.0338L57.8058 71.4749L57.3186 70.2634L58.4052 69.8222Z" fill="#0D65BB"/>
<path d="M57.0813 71.769L57.5685 72.9806L56.4819 73.4217L55.9947 72.2101L57.0813 71.769Z" fill="#0D65BB"/>
<path d="M55.7575 73.7158L56.1751 74.7543L55.0884 75.1954L54.6708 74.1569L55.7575 73.7158Z" fill="#0D65BB"/>
<path d="M54.6843 75.7621L55.1019 76.8006L54.5586 77.0212L54.141 75.9827L54.6843 75.7621Z" fill="#0D65BB"/>
<path d="M57.4834 61.6281L59.2124 61.0691L57.9077 60.0826L57.1681 60.4589L57.4834 61.6281Z" fill="#0D65BB"/>
<path d="M58.2263 62.0427L58.7831 63.4274L57.5154 63.942L56.9585 62.5574L58.2263 62.0427Z" fill="#0D65BB"/>
<path d="M57.8357 64.2147L58.3229 65.4263L57.0551 65.9409L56.5679 64.7293L57.8357 64.2147Z" fill="#0D65BB"/>
<path d="M57.1943 66.2871L57.6815 67.4986L56.4138 68.0133L55.9266 66.8017L57.1943 66.2871Z" fill="#0D65BB"/>
<path d="M56.553 68.3594L56.9706 69.3979L55.7028 69.9126L55.2852 68.8741L56.553 68.3594Z" fill="#0D65BB"/>
<path d="M55.4102 70.2327L55.8974 71.4443L54.6296 71.9589L54.1424 70.7473L55.4102 70.2327Z" fill="#0D65BB"/>
<path d="M54.2674 72.106L54.7546 73.3175L53.4869 73.8322L52.9997 72.6206L54.2674 72.106Z" fill="#0D65BB"/>
<path d="M53.2638 74.3254L53.751 75.537L53.2077 75.7575L52.7205 74.5459L53.2638 74.3254Z" fill="#0D65BB"/>
<path d="M52.0245 72.8151L52.5117 74.0267L51.9684 74.2472L51.4812 73.0357L52.0245 72.8151Z" fill="#0D65BB"/>
<path d="M52.847 70.6692L53.2646 71.7077L51.9968 72.2223L51.5792 71.1838L52.847 70.6692Z" fill="#0D65BB"/>
<path d="M50.6041 71.3783L51.0217 72.4168L50.4783 72.6374L50.0607 71.5989L50.6041 71.3783Z" fill="#0D65BB"/>
<path d="M53.5579 68.7699L53.9755 69.8084L52.8889 70.2495L52.4713 69.211L53.5579 68.7699Z" fill="#0D65BB"/>
<path d="M54.45 66.7971L54.8676 67.8356L53.7809 68.2767L53.3633 67.2382L54.45 66.7971Z" fill="#0D65BB"/>
<path d="M55.0913 64.7247L55.5089 65.7632L54.4223 66.2043L54.0047 65.1658C53.949 65.0273 54.7059 64.814 55.0913 64.7247Z" fill="#0D65BB"/>
<path d="M55.7327 62.6523L56.1503 63.6908L55.0636 64.1319L54.646 63.0934L55.7327 62.6523Z" fill="#0D65BB"/>
<path d="M56.1233 60.4804L56.5409 61.5189L55.2732 62.0335L54.8556 60.995L56.1233 60.4804Z" fill="#0D65BB"/>
<path d="M55.4827 59.9351L54.9914 58.4258L55.3197 58.4203L57.102 59.5979L55.4827 59.9351Z" fill="#0D65BB"/>
<path d="M54.2711 59.0176L54.7583 60.2292L53.4905 60.7438L53.0033 59.5322L54.2711 59.0176Z" fill="#0D65BB"/>
<path d="M53.7107 57.0482L54.8147 58.0344L53.8116 58.3988L53.3244 57.1872L53.7107 57.0482Z" fill="#0D65BB"/>
<path d="M53.7689 61.4361L54.1865 62.4746L52.9188 62.9893L52.5012 61.9508L53.7689 61.4361Z" fill="#0D65BB"/>
<path d="M53.1276 63.5085L53.5452 64.547L52.4585 64.9881L52.0409 63.9496L53.1276 63.5085Z" fill="#0D65BB"/>
<path d="M52.7369 65.6804L53.0849 66.5459L52.1794 66.9135L51.8314 66.048L52.7369 65.6804Z" fill="#0D65BB"/>
<path d="M51.8868 67.2336L52.374 68.4452L51.2873 68.8863L50.8001 67.6747L51.8868 67.2336Z" fill="#0D65BB"/>
<path d="M51.315 69.479L51.663 70.3445L50.5764 70.7856L50.2284 69.9202L51.315 69.479Z" fill="#0D65BB"/>
<path d="M49.4343 70.0412L49.8519 71.0796L49.3086 71.3002L48.891 70.2617L49.4343 70.0412Z" fill="#0D65BB"/>
<path d="M52.6903 55.638L53.4211 56.5735L52.3911 56.962L51.9735 55.9235L52.6903 55.638Z" fill="#0D65BB"/>
<path d="M52.5999 57.4812L53.0871 58.6928L52.0005 59.1339L51.5133 57.9224L52.5999 57.4812Z" fill="#0D65BB"/>
<path d="M52.2093 59.6532L52.6269 60.6917L51.5402 61.1328L51.1226 60.0943L52.2093 59.6532Z" fill="#0D65BB"/>
<path d="M51.5679 61.7256L51.9855 62.7641L51.08 63.1317L50.6624 62.0932L51.5679 61.7256Z" fill="#0D65BB"/>
<path d="M50.9266 63.798L51.3442 64.8365L50.4386 65.2041L50.021 64.1656L50.9266 63.798Z" fill="#0D65BB"/>
<path d="M50.2852 65.8703L50.6332 66.7358L49.7277 67.1034L49.3797 66.2379L50.2852 65.8703Z" fill="#0D65BB"/>
<path d="M49.6439 67.9427L50.0615 68.9812L49.1559 69.3488L48.7383 68.3103L49.6439 67.9427Z" fill="#0D65BB"/>
<path d="M47.8747 68.2582L48.2923 69.2967L47.749 69.5173L47.3314 68.4788L47.8747 68.2582Z" fill="#0D65BB"/>
<path d="M51.5113 54.0689L52.2385 55.0106L51.1518 55.4517L50.7342 54.4132L51.5113 54.0689Z" fill="#0D65BB"/>
<path d="M51.2491 56.2176L51.5971 57.083L50.6916 57.4506L50.3436 56.5852L51.2491 56.2176Z" fill="#0D65BB"/>
<path d="M50.6077 58.29L51.0253 59.3285L50.1198 59.6961L49.7022 58.6576L50.6077 58.29Z" fill="#0D65BB"/>
<path d="M50.1475 60.2888L50.4955 61.1542L49.59 61.5218L49.242 60.6564L50.1475 60.2888Z" fill="#0D65BB"/>
<path d="M49.3669 62.015L49.7845 63.0535L48.879 63.4211L48.4614 62.3826L49.3669 62.015Z" fill="#0D65BB"/>
<path d="M48.7952 64.2605L49.2128 65.299L48.3072 65.6666L47.8896 64.6281L48.7952 64.2605Z" fill="#0D65BB"/>
<path d="M48.1538 66.3329L48.5714 67.3714L47.6659 67.739L47.2483 66.7005L48.1538 66.3329Z" fill="#0D65BB"/>
<path d="M46.705 66.921L47.1226 67.9595L46.5792 68.1801L46.1616 67.1416L46.705 66.921Z" fill="#0D65BB"/>
<path d="M50.5755 52.7483L51.2078 53.6133L49.9821 54.1145L49.5645 53.076L50.5755 52.7483Z" fill="#0D65BB"/>
<path d="M50.1909 54.6338L50.6085 55.6723L49.5218 56.1134L49.1042 55.0749L50.1909 54.6338Z" fill="#0D65BB"/>
<path d="M49.4799 56.5331L49.8975 57.5716L48.6298 58.0862L48.2122 57.0477L49.4799 56.5331Z" fill="#0D65BB"/>
<path d="M48.8386 58.6055L49.2562 59.644L47.9884 60.1586L47.5708 59.1201L48.8386 58.6055Z" fill="#0D65BB"/>
<path d="M48.1972 60.6778L48.6148 61.7163L47.3471 62.231L46.9295 61.1925L48.1972 60.6778Z" fill="#0D65BB"/>
<path d="M47.5559 62.7502L47.9735 63.7887L46.8868 64.2298L46.4692 63.1913L47.5559 62.7502Z" fill="#0D65BB"/>
<path d="M47.0956 64.7491L47.5132 65.7876L46.4266 66.2287L46.009 65.1902L47.0956 64.7491Z" fill="#0D65BB"/>
<path d="M44.6404 65.8138L45.1393 65.4862L45.4923 66.0861L45.7001 66.5359L45.2835 66.8239L44.6404 65.8138Z" fill="#0D65BB"/>
<path d="M48.5332 54.7027L49.4387 54.3351L49.0211 53.2966L48.1156 53.6642L48.5332 54.7027Z" fill="#0D65BB"/>
<path d="M48.3102 55.1959L48.7278 56.2344L47.6411 56.6755L47.2235 55.637L48.3102 55.1959Z" fill="#0D65BB"/>
<path d="M47.6688 57.2683L48.0864 58.3068L46.9998 58.7479L46.5822 57.7094L47.6688 57.2683Z" fill="#0D65BB"/>
<path d="M47.0275 59.3407L47.3755 60.2061L46.2888 60.6472L45.9408 59.7818L47.0275 59.3407Z" fill="#0D65BB"/>
<path d="M46.3165 61.2399L46.7341 62.2785L45.6475 62.7196L45.2299 61.6811L46.3165 61.2399Z" fill="#0D65BB"/>
<path d="M45.9259 63.4119L46.3435 64.4504L45.2568 64.8915L44.8392 63.853L45.9259 63.4119Z" fill="#0D65BB"/>
<path d="M44.0272 64.0816L44.6284 64.9471L44.244 65.3061L43.4645 64.3483L44.0272 64.0816Z" fill="#0D65BB"/>
<path d="M49.448 51.1375L50.2612 52.1892L49.3557 52.5568L48.9381 51.5183L49.448 51.1375Z" fill="#0D65BB"/>
<path d="M48.3947 51.7388L48.8123 52.7773L47.5446 53.292L47.127 52.2535L48.3947 51.7388Z" fill="#0D65BB"/>
<path d="M47.3216 53.7852L47.7392 54.8237L46.8336 55.1913L46.416 54.1528L47.3216 53.7852Z" fill="#0D65BB"/>
<path d="M46.6106 55.6845L47.0282 56.723L45.9416 57.1641L45.524 56.1256L46.6106 55.6845Z" fill="#0D65BB"/>
<path d="M45.7881 57.8304L46.2057 58.8689L45.3002 59.2365L44.8826 58.198L45.7881 57.8304Z" fill="#0D65BB"/>
<path d="M45.1468 59.9028L45.5644 60.9413L44.6589 61.3089L44.2412 60.2704L45.1468 59.9028Z" fill="#0D65BB"/>
<path d="M44.6865 61.9016L45.1042 62.9401L44.0175 63.3812L43.5999 62.3427L44.6865 61.9016Z" fill="#0D65BB"/>
<path d="M42.8465 62.5831L43.4547 63.6395L43.1857 63.7643C43.0564 63.8244 42.903 63.7726 42.8366 63.6466L42.3765 62.7734L42.8465 62.5831Z" fill="#0D65BB"/>
<path d="M46.514 52.301L47.0013 53.5125L45.9146 53.9536L45.4274 52.7421L46.514 52.301Z" fill="#0D65BB"/>
<path d="M45.6916 54.4469L46.1092 55.4854L45.0225 55.9265L44.6049 54.888L45.6916 54.4469Z" fill="#0D65BB"/>
<path d="M44.9806 56.3462L45.3982 57.3846L44.3116 57.8258L43.894 56.7873L44.9806 56.3462Z" fill="#0D65BB"/>
<path d="M44.3393 58.4185L44.7569 59.457L43.6702 59.8981L43.2526 58.8596L44.3393 58.4185Z" fill="#0D65BB"/>
<path d="M43.6283 60.3178L44.1155 61.5294L42.9294 62.0109L42.4422 60.7993L43.6283 60.3178Z" fill="#0D65BB"/>
<path d="M41.9983 60.9795L42.4855 62.1911L42.1563 62.3247C42.0333 62.3747 41.8925 62.327 41.8253 62.2125L41.3266 61.3637L41.9983 60.9795Z" fill="#0D65BB"/>
<path d="M42.7093 59.0802L43.1269 60.1187L42.0403 60.5598L41.6226 59.5213L42.7093 59.0802Z" fill="#0D65BB"/>
<path d="M40.9593 59.5322L41.5234 60.8145L41.1638 60.9466C41.0281 60.9964 40.8776 60.9295 40.8236 60.7953L40.4332 59.8244L40.9593 59.5322Z" fill="#0D65BB"/>
<path d="M43.3507 57.0078L43.7683 58.0463L42.6816 58.4874L42.264 57.4489L43.3507 57.0078Z" fill="#0D65BB"/>
<path d="M41.9018 57.596L42.3194 58.6345L41.2327 59.0756L40.8151 58.0371L41.9018 57.596Z" fill="#0D65BB"/>
<path d="M40.2022 58.0846L40.6198 59.1231L40.2213 59.4655L39.5819 58.4969L40.2022 58.0846Z" fill="#0D65BB"/>
<path d="M44.1731 54.8619L44.5907 55.9004L43.5041 56.3415L43.0865 55.303L44.1731 54.8619Z" fill="#0D65BB"/>
<path d="M42.5431 55.5236L42.9607 56.5621L41.8741 57.0032L41.4565 55.9647L42.5431 55.5236Z" fill="#0D65BB"/>
<path d="M40.9132 56.1853L41.3308 57.2238L40.2441 57.6649L39.8265 56.6264L40.9132 56.1853Z" fill="#0D65BB"/>
<path d="M39.4643 56.7734L39.8819 57.8119L39.3386 58.0325L38.7878 57.083L39.4643 56.7734Z" fill="#0D65BB"/>
<path d="M45.0652 52.8891C45.1208 53.2021 45.2822 53.848 45.4828 53.9276L44.3961 54.3687L43.9785 53.3302L45.0652 52.8891Z" fill="#0D65BB"/>
<path d="M43.4352 53.5508L43.8528 54.5893L42.585 55.1039L42.1674 54.0654L43.4352 53.5508Z" fill="#0D65BB"/>
<path d="M41.8052 54.2124L42.2228 55.2509L41.1362 55.6921L40.7186 54.6536L41.8052 54.2124Z" fill="#0D65BB"/>
<path d="M40.3564 54.8006L40.774 55.8391L39.6873 56.2802L39.2697 55.2417L40.3564 54.8006Z" fill="#0D65BB"/>
<path d="M38.9075 55.3888L39.3251 56.4273L38.7818 56.6478L38.3642 55.6093L38.9075 55.3888Z" fill="#0D65BB"/>
<path d="M48.422 49.6978L49.1575 50.626L48.367 51.1461L47.9494 50.1076L48.422 49.6978Z" fill="#0D65BB"/>
<path d="M47.4061 50.3281L47.8237 51.3666L46.7371 51.8077L46.3195 50.7692L47.4061 50.3281Z" fill="#0D65BB"/>
<path d="M45.7761 50.9898L46.1937 52.0283L45.1071 52.4694L44.6895 51.4309L45.7761 50.9898Z" fill="#0D65BB"/>
<path d="M44.3273 51.578L44.7449 52.6165L43.6582 53.0576L43.2406 52.0191L44.3273 51.578Z" fill="#0D65BB"/>
<path d="M42.6973 52.2396L43.1149 53.2781L42.0282 53.7192L41.6106 52.6807L42.6973 52.2396Z" fill="#0D65BB"/>
<path d="M41.2484 52.8278L41.666 53.8663L40.5794 54.3074L40.1618 53.2689L41.2484 52.8278Z" fill="#0D65BB"/>
<path d="M39.7996 53.4159L40.2172 54.4544L38.9494 54.9691L38.5318 53.9306L39.7996 53.4159Z" fill="#0D65BB"/>
<path d="M38.225 55.2631L38.7683 55.0426L38.3507 54.0041L37.8074 54.2246L38.225 55.2631Z" fill="#0D65BB"/>
<g filter="url(#filter0_d_438_2)">
<path d="M19.7068 21.7608L14.1001 8.59384L40.0431 7.75005C45.1407 7.58425 50.4757 7.59353 54.8705 10.1816C66.3976 16.9698 68.4591 33.0308 57.8011 43.0565L18.3684 71.7045L19.0163 53.3492L40.4507 37.5624C45.9645 33.5014 53.1714 25.4544 47.0121 22.4618C46.5345 22.2297 46.0229 22.0973 45.4952 22.0881L19.7068 21.7608Z" fill="#1F8EFA"/>
</g>
<defs>
<filter id="filter0_d_438_2" x="0.688025" y="0.984881" width="77.4841" height="90.8378" filterUnits="userSpaceOnUse" color-interpolation-filters="sRGB">
<feFlood flood-opacity="0" result="BackgroundImageFix"/>
<feColorMatrix in="SourceAlpha" type="matrix" values="0 0 0 0 0 0 0 0 0 0 0 0 0 0 0 0 0 0 127 0" result="hardAlpha"/>
<feOffset dy="6.70604"/>
<feGaussianBlur stdDeviation="6.70604"/>
<feComposite in2="hardAlpha" operator="out"/>
<feColorMatrix type="matrix" values="0 0 0 0 0 0 0 0 0 0 0 0 0 0 0 0 0 0 0.25 0"/>
<feBlend mode="normal" in2="BackgroundImageFix" result="effect1_dropShadow_438_2"/>
<feBlend mode="normal" in="SourceGraphic" in2="effect1_dropShadow_438_2" result="shape"/>
</filter>
<linearGradient id="paint0_linear_438_2" x1="45.1986" y1="59.4842" x2="33.207" y2="52.9657" gradientUnits="userSpaceOnUse">
<stop stop-color="#0C67C0" stop-opacity="0.04"/>
<stop offset="0.766921" stop-color="#0C67C0"/>
</linearGradient>
<linearGradient id="paint1_linear_438_2" x1="45.1986" y1="59.4842" x2="33.207" y2="52.9657" gradientUnits="userSpaceOnUse">
<stop stop-color="#0C67C0" stop-opacity="0.04"/>
<stop offset="0.766921" stop-color="#0C67C0"/>
</linearGradient>
</defs>
</svg>
